#!OML:ASF F:\VICON\USERDATA\INSTALL\rory3\rory3.ASF
:FULLY-SPECIFIED
:DEGREES
1430
root -0.790826 17.9299 1.35838 -2.86419 8.46215 -1.27731
lowerback 9.80049 2.95507 0.504592
upperback 3.93532 3.89662 -4.55441
thorax -1.03105 2.00223 -5.42695
lowerneck -13.3407 -5.88033 -7.41473
upperneck 2.78389 -7.81202 16.163
head 4.01084 -3.20044 5.61659
rclavicle -5.1684e-015 1.59028e-014
rhumerus 53.3749 32.1889 5.83949
rradius 74.52
rwrist 42.0568
rhand -66.1036 22.6087
rfingers 7.12502
rthumb -37.9408 -3.20661
lclavicle -5.1684e-015 1.59028e-014
lhumerus -23.6106 -11.2433 74.8287
lradius 60.2573
lwrist -1.65282
lhand -35.339 16.0207
lfingers 7.12502
lthumb -8.47195 45.8307
rfemur -13.1367 9.7006 12.8547
rtibia 39.8701
rfoot -22.257 -20.8851
rtoes -9.87823
lfemur -12.9157 -4.58254 -4.98392
ltibia 35.6862
lfoot -15.4958 8.15551
ltoes -23.4347
1431
root -0.834375 17.9072 1.3549 -2.988 8.31622 -1.26819
lowerback 9.69948 3.05542 0.443752
upperback 4.09004 4.03345 -4.5209
thorax -0.808179 2.07591 -5.35706
lowerneck -13.4012 -5.98288 -7.53701
upperneck 2.69642 -7.92153 16.2069
head 4.01497 -3.25423 5.63945
rclavicle 3.18055e-014 -3.02153e-014
rhumerus 53.7226 32.9059 6.19189
rradius 74.4018
rwrist 43.1341
rhand -66.0283 25.4332
rfingers 7.12502
rthumb -37.8697 -0.401379
lclavicle 3.18055e-014 -3.02153e-014
lhumerus -22.9943 -11.1866 74.7381
lradius 59.9667
lwrist -1.83219
lhand -35.4447 16.0125
lfingers 7.12502
lthumb -8.57394 45.8185
rfemur -13.494 9.43481 12.9744
rtibia 40.5298
rfoot -22.2018 -20.7401
rtoes -10.3184
lfemur -12.8534 -4.4885 -4.83022
ltibia 35.8512
lfoot -15.4922 8.20856
ltoes -23.7955
1432
root -0.880366 17.887 1.35529 -3.06799 8.17448 -1.29971
lowerback 9.69974 3.12638 0.487295
upperback 4.09841 4.13181 -4.53595
thorax -0.785693 2.1265 -5.40635
lowerneck -13.3334 -6.05036 -7.66443
upperneck 2.65201 -8.0005 16.3301
head 4.01204 -3.2936 5.69351
rclavicle 4.77083e-015 -7.95139e-015
rhumerus 54.1698 33.7416 6.5539
rradius 74.2893
rwrist 44.034
rhand -66.1379 28.7693
rfingers 7.12502
rthumb -37.9732 2.96276
lclavicle 4.77083e-015 -7.95139e-015
lhumerus -22.6978 -11.1519 74.5506
lradius 59.8338
lwrist -2.06468
lhand -35.215 15.9893
lfingers 7.12502
lthumb -8.35231 45.8042
rfemur -13.8786 9.24719 13.149
rtibia 41.1864
rfoot -22.2078 -20.6114
rtoes -10.5247
lfemur -12.8116 -4.37687 -4.61129
ltibia 35.976
lfoot -15.5563 8.18404
ltoes -24.0514
1433
root -0.930235 17.8678 1.354 -3.09767 8.06666 -1.25852
lowerback 9.74548 3.1924 0.415546
upperback 4.04777 4.20922 -4.5834
thorax -0.85737 2.16303 -5.42836
lowerneck -13.2808 -6.06692 -7.66941
upperneck 2.67724 -8.0304 16.3572
head 4.01632 -3.30855 5.7009
rclavicle 1.98785e-015 6.36111e-015
rhumerus 54.5934 34.5749 6.86072
rradius 74.2425
rwrist 45.0707
rhand -66.0163 30.1696
rfingers 7.12502
rthumb -37.8583 4.33194
lclavicle 1.98785e-015 6.36111e-015
lhumerus -22.5265 -11.176 74.3621
lradius 59.7351
lwrist -2.28748
lhand -35.1909 15.8138
lfingers 7.12502
lthumb -8.32903 45.6296
rfemur -14.2553 9.02771 13.2449
rtibia 41.7894
rfoot -22.327 -20.3691
rtoes -10.5378
lfemur -12.8159 -4.38735 -4.46868
ltibia 36.0741
lfoot -15.6227 8.17401
ltoes -23.7021
1434
root -0.981411 17.8503 1.35415 -3.16614 7.93904 -1.06244
lowerback 9.70152 3.31186 0.16658
upperback 4.07422 4.34702 -4.63459
thorax -0.807116 2.23096 -5.35026
lowerneck -13.1648 -6.13545 -7.648
upperneck 2.65442 -8.1221 16.2613
head 3.99512 -3.36395 5.65968
rclavicle -1.47101e-014 -7.95139e-015
rhumerus 54.8623 35.2817 7.1384
rradius 74.2162
rwrist 46.4058
rhand -65.7669 28.0688
rfingers 7.12502
rthumb -37.6227 2.1679
lclavicle -1.47101e-014 -7.95139e-015
lhumerus -22.2956 -11.2018 74.2896
lradius 59.6718
lwrist -2.36108
lhand -35.3831 16.0745
lfingers 7.12502
lthumb -8.51454 45.8828
rfemur -14.5502 8.85336 13.1756
rtibia 42.3383
rfoot -22.4706 -20.0846
rtoes -10.5364
lfemur -12.707 -4.43602 -4.51276
ltibia 36.1343
lfoot -15.6833 8.25461
ltoes -23.4261
1435
root -1.03693 17.8345 1.3608 -3.31673 7.85698 -0.942178
lowerback 9.63923 3.42322 -0.0620092
upperback 4.16489 4.48043 -4.62416
thorax -0.684896 2.29792 -5.2142
lowerneck -13.1713 -6.24897 -7.79812
upperneck 2.68514 -8.25984 16.3002
head 4.03043 -3.43055 5.68328
rclavicle 1.98785e-014 1.11319e-014
rhumerus 55.1637 35.8359 7.47296
rradius 74.1417
rwrist 47.4818
rhand -65.534 27.9255
rfingers 7.12502
rthumb -37.4026 1.96625
lclavicle 1.98785e-014 1.11319e-014
lhumerus -21.9766 -11.1398 74.2572
lradius 59.586
lwrist -2.41795
lhand -35.4577 16.4093
lfingers 7.12502
lthumb -8.58653 46.2147
rfemur -14.6834 8.79856 13.2469
rtibia 42.8096
rfoot -22.598 -19.9927
rtoes -10.6335
lfemur -12.4968 -4.46743 -4.46117
ltibia 36.1606
lfoot -15.707 8.32638
ltoes -23.6273
1436
root -1.093 17.8198 1.36879 -3.37037 7.75893 -0.82666
lowerback 9.60655 3.50326 -0.235774
upperback 4.13939 4.57053 -4.68374
thorax -0.694063 2.34109 -5.18598
lowerneck -13.1712 -6.3166 -7.83488
upperneck 2.74488 -8.35782 16.3422
head 4.06428 -3.47512 5.69289
rclavicle 1.31198e-014 -6.36111e-015
rhumerus 55.5281 36.4297 7.782
rradius 74.1462
rwrist 48.1503
rhand -65.2352 29.6062
rfingers 7.12502
rthumb -37.1201 3.57292
lclavicle 1.31198e-014 -6.36111e-015
lhumerus -21.6627 -11.0286 74.0872
lradius 59.3403
lwrist -2.5916
lhand -35.3043 16.45
lfingers 7.12502
lthumb -8.43842 46.2614
rfemur -14.8667 8.73802 13.3088
rtibia 43.2131
rfoot -22.7321 -19.867
rtoes -10.6446
lfemur -12.3563 -4.52525 -4.40505
ltibia 36.1599
lfoot -15.7698 8.45863
ltoes -23.663
